<svg width="700" height="361" viewBox="0 0 700 361" fill="none" xmlns="http://www.w3.org/2000/svg">
<path d="M298 17.5C298.8 17.7 299.6 18 300.3 18.2C303.1 19.1 304.2 22.1 302.7 24.7C301.6 26.6 299.9 28.1 298.4 29.7C297.1 31 295.5 32.2 294.9 34C294.3 35.7 293.7 37.5 293.5 39.3C293.2 41.6 293.4 43.9 293.2 46.2C293.1 48.7 292.5 51.1 290.4 52.7C289.4 53.5 288.2 54 286.8 54.2C283 54.7 280.6 52.5 278.5 49.9C274.5 44.9 272.4 39 270.7 32.9C270.4 31.8 270.3 30.6 270.1 29.4C270.1 29.3 270 29.2 269.9 29.1C269.9 27.6 269.9 26.1 269.9 24.6C270 24.3 270.2 24 270.3 23.8C270.9 21.8 272.6 20.7 274.6 20.7C276.1 20.7 277.3 21.3 278.6 21.9C280.2 22.7 281.7 22.7 283.3 21.9C285.5 20.8 287.7 19.7 290 18.8C291.1 18.3 292.4 18 293.6 17.7C295.1 17.5 296.5 17.5 298 17.5Z" fill="#302F3F"/>
<path d="M389.2 35.7999C389.1 39.7999 388.5 43.5999 386.8 47.0999C386.2 48.3999 385.4 49.6 384.2 50.4C382.1 51.8 379.3 51.2999 378.2 48.7999C377.5 47.4 377 45.9999 376.3 44.5999C375.6 43.2999 374.6 42.1 372.9 42.5C372 42.7 371.1 43.2999 370.3 43.7999C369.5 44.4 368.9 45.1999 368.1 45.7999C366.3 47.1999 364.8 47.1999 362.6 45.7999C361.8 45.2999 360.9 44.8 360 44.4C359 43.9 358 44.1999 357.3 45.0999C356.2 46.3999 355.3 47.7999 354.3 49.0999C353.2 50.3999 351.9 51.1999 350.2 51.2999C345.9 51.6999 343.8 48.8999 342.9 45.5999C342.2 42.9999 342.2 40.4 342.5 37.7999C342.8 34.4999 343.1 31.1999 344.3 28.0999C345.4 25.2999 346.7 22.7999 349.5 21.2999C352.8 19.4999 356.8 19.7999 359.9 22.4999C361.6 23.9999 363.5 25.2 365.8 25.1C367.7 25 369.2 24.0999 370.8 23.1C372.3 22.2 373.7 21.2 375.3 20.6C378.2 19.5 381.1 19.8 383.7 21.7C386.5 23.8 387.8 26.7999 388.5 29.9999C388.9 31.6999 389 33.7999 389.2 35.7999Z" fill="#302F3F"/>
<path d="M430 33.6001C430.1 38.5001 428.8 43.0001 426.9 47.4001C425.8 50.2001 424.3 52.7001 422.5 55.1001C420.1 58.3001 417.2 61.0001 413.7 63.1001C411.3 64.6001 408.7 65.7001 405.9 66.0001C402.9 66.4001 399.9 66.6001 396.9 65.6001C393.3 64.4001 392.7 59.9001 395.1 57.3001C396.6 55.7001 398.6 54.8001 400.4 53.6001C402.1 52.5001 403.6 51.2001 403.9 49.1001C404.1 48.0001 403.9 46.9001 403.7 45.9001C403 43.0001 401.3 40.5001 399.9 37.8001C398.7 35.5001 397.7 33.1001 397.3 30.6001C396.9 28.4001 397.1 26.4001 398.6 24.6001C400.8 22.0001 403.7 21.4001 406.4 23.3001C407.8 24.3001 409 25.5001 410.3 26.6001C412.5 28.7001 415 29.1001 417.8 27.7001C419.5 26.9001 421.1 26.0001 422.9 25.7001C424.8 25.4001 426.7 25.4001 428.2 26.8001C429.5 28.0001 429.9 29.6001 430 31.2001C430.1 32.1001 430 32.9001 430 33.6001Z" fill="#302F3F"/>
<path d="M321.6 57.9001C317.2 57.9001 313.3 56.6001 310 53.8001C306.9 51.2001 305 47.8001 304.4 43.8001C303.9 40.3001 304.2 36.9001 305.8 33.7001C307.4 30.4001 309.8 27.7001 312.9 25.8001C315.3 24.4001 317.8 23.5001 320.6 23.3001C324.8 22.9001 328.6 23.8001 331.7 26.7001C334.4 29.2001 335.5 33.3001 332.9 37.1001C332.1 38.3001 331.1 39.5001 330.4 40.8001C329.6 42.0001 329 43.3001 329.3 44.8001C329.5 45.6001 330 46.3001 330.5 46.9001C331.2 47.8001 332.3 48.5001 332.9 49.4001C334.4 51.7001 333.9 53.7001 331.6 55.3001C329.5 56.7001 327.1 57.4001 324.6 57.7001C323.6 57.8001 322.6 57.8001 321.6 57.9001Z" fill="#302F3F"/>
<path d="M115.6 184.9C115.3 184.8 115.1 184.6 114.8 184.5C113 183.9 112.1 182.3 112.6 180.3C112.9 178.8 114.6 177.7 116.3 177.9C116.5 177.9 116.8 178.2 116.9 178.5C117.3 179.4 117.7 180.3 118.1 181.2C118.5 182 119 182.2 119.6 181.5C120.4 180.6 120.9 179.5 121.5 178.4C122 177.4 122.4 176.3 122.9 175.3C123.3 174.6 123.1 173.9 122.8 173.2C121.2 169.3 119.6 165.3 118 161.4C116.8 158.6 116 155.5 113.9 152.9C117.1 152.9 120.1 152.9 123.3 152.9C122.7 153.6 122.1 154.2 121.6 154.9C121.4 155.2 121.3 155.6 121.4 155.9C122.9 159.6 124.3 163.2 125.8 166.9C125.8 167 125.9 167 126 167.2C126.7 165.5 127.4 163.9 128 162.3C128.5 161.1 129 159.8 129.5 158.5C129.8 157.7 129.8 157 129.3 156.3C128.6 155.2 128 154.1 127.2 152.9C129.5 152.9 131.6 152.9 133.9 152.9C133.2 154 132.5 154.9 131.9 155.9C131.1 157.3 130.4 158.6 129.8 160.1C127.9 164.8 126 169.5 124.1 174.2C123 176.8 121.9 179.3 120.6 181.8C119.9 183.2 118.6 184.1 117.1 184.4C116.8 184.5 116.6 184.7 116.4 184.8C116.1 184.9 115.8 184.9 115.6 184.9Z" fill="#302E3F"/>
<path d="M37.1 146.9C39.6 146.9 42 146.9 44.3 146.9C46.8 147 46.8 147 47.8 149.4C49.9 154.4 52.1 159.3 54.3 164.4C54.7 163.6 55 162.9 55.3 162.2C56.8 158.3 58.4 154.4 59.9 150.5C60.2 149.8 60.5 149.2 60.7 148.5C61.4 146.7 61.4 146.7 63.3 146.7C65.3 146.7 67.4 146.7 69.7 146.7C68.6 147.5 67.6 148.2 66.8 148.9C66.5 149.2 66.2 149.7 66.2 150.1C66.2 156.5 66.2 163 66.2 169.4C66.2 169.8 66.5 170.3 66.8 170.5C67.7 171.2 68.7 171.9 69.8 172.7C65.5 172.7 61.4 172.7 57.1 172.7C58.2 171.9 59.2 171.2 60.1 170.5C60.4 170.3 60.6 169.8 60.6 169.5C60.6 163.7 60.6 157.9 60.6 152.1C60.6 152 60.6 152 60.4 151.8C57.7 159 55 166 52.1 173.2C48.6 165.6 45.7 158.1 42.2 150.8C42.1 150.8 42 150.8 41.9 150.9C41.9 151.2 41.9 151.5 41.9 151.9C41.9 156.6 42 161.3 41.8 165.9C41.7 167.9 42.5 169.2 43.9 170.4C44.8 171.1 45.5 172 46.4 173C43 173 39.8 173 36.4 173C37.3 172.1 38 171.4 38.7 170.6C39.3 170 39.9 169.6 40.4 169C40.7 168.6 40.9 168 40.9 167.6C40.9 162.2 40.9 156.7 40.9 151.3C40.9 150.8 40.6 150.2 40.2 149.9C39.2 148.8 38.2 147.9 37.1 146.9Z" fill="#302E3F"/>
<path d="M166.5 173C162.9 173 159.5 173 155.8 173C156.6 172.4 157.3 172 157.8 171.4C158.1 171.1 158.5 170.6 158.5 170.2C158.5 165.5 158.5 160.8 158.5 156.1C158.5 154.9 157.3 154.7 156.8 154C156.5 153.7 156.1 153.5 155.6 153C158.4 153 160.9 153 163.6 153C163.6 154.3 163.6 155.6 163.6 156.9C164.4 155.9 165.1 154.7 166.1 153.8C168.2 152 172.8 151.9 174.6 155C175.7 156.8 175.9 158.8 175.9 160.8C175.9 163.8 175.9 166.8 175.8 169.7C175.8 170.5 176 171.1 176.8 171.6C177.4 171.9 177.9 172.4 178.6 172.9C175 172.9 171.6 172.9 168 172.9C168.5 172.5 168.8 172.1 169.3 171.8C170.3 171.2 170.7 170.4 170.7 169.3C170.7 166.9 170.8 164.5 170.8 162.1C170.8 160.7 170.6 159.4 170.4 158C170.2 156.8 169.6 155.8 168.3 155.4C167 155 165.8 155.5 164.8 156.4C164 157.2 163.5 158 163.6 159.3C163.7 162.8 163.7 166.2 163.6 169.7C163.6 170.5 163.8 171.1 164.6 171.5C165.2 171.9 165.7 172.4 166.5 173Z" fill="#302E3F"/>
<path d="M114.4 173C110.8 173 107.4 173 103.7 173C104.5 172.4 105.2 171.9 105.9 171.3C106.2 171.1 106.5 170.7 106.5 170.4C106.5 166.6 106.5 162.8 106.4 159C106.4 158.2 106 157.4 105.6 156.7C105 155.5 103.1 155 101.9 155.7C100.4 156.5 99.3 157.6 99.4 159.6C99.5 163 99.5 166.4 99.4 169.9C99.4 170.6 99.6 171.1 100.2 171.5C100.8 171.9 101.4 172.4 102.2 172.9C98.6 172.9 95.2 172.9 91.6 172.9C92.3 172.4 92.8 171.9 93.5 171.6C94.1 171.2 94.4 170.8 94.4 170.1C94.4 165.5 94.4 160.9 94.4 156.3C94.4 155.8 94.1 155.3 93.8 155C93.2 154.4 92.4 153.8 91.6 153.1C94.4 153.1 96.9 153.1 99.5 153.1C99.5 154.5 99.5 155.8 99.5 157.4C100.2 156.4 100.6 155.4 101.3 154.6C103 152.7 105.2 152.4 107.5 153C109.7 153.5 110.8 155.1 111.3 157.1C111.6 158.5 111.7 159.9 111.8 161.3C111.8 164.2 111.8 167.1 111.7 170.1C111.7 170.8 111.9 171.3 112.6 171.7C113.1 171.9 113.6 172.4 114.4 173Z" fill="#302E3F"/>
<path d="M154 162.8C153.9 165 153.7 167 152.7 168.8C151.5 171 149.7 172.4 147.4 172.9C144.3 173.6 141.3 173.6 138.5 171.8C136.3 170.4 135.1 168.4 134.6 166C134.2 164 134.2 161.9 134.6 159.9C135.4 155.8 138.6 153 142.8 152.7C144.6 152.6 146.4 152.6 148.2 153.3C151.6 154.5 153.3 157.1 153.9 160.5C153.9 161.3 153.9 162.1 154 162.8ZM148.4 163C148.3 163 148.2 163 148.1 163C148.2 160.6 148 158.2 147.2 155.9C146.6 154.2 145.5 153.3 143.9 153.3C142.4 153.3 141.3 154.2 140.7 155.9C139.7 159.2 139.6 162.5 139.9 165.9C140 167.5 140.4 169.1 140.9 170.7C141.5 172.6 143.3 173.3 145.1 172.6C146.3 172.1 147 171.1 147.2 169.9C147.8 167.5 148.1 165.3 148.4 163Z" fill="#302E3F"/>
<path d="M82.5 162.5C82.5 160.6 82.6 158.9 82.5 157.2C82.3 154.7 80.9 153.3 78.6 153.3C77.9 153.3 77.6 153.5 77.3 154.1C76.9 155 76.5 155.8 76 156.7C75.6 157.6 75.1 158.4 74.6 159.5C73.8 157.6 73.1 155.8 72.3 153.8C74.2 153.4 75.9 152.8 77.7 152.6C79.8 152.4 81.9 152.3 83.9 153.1C86.2 154 87.1 156 87.3 158.1C87.5 161.1 87.3 164.1 87.3 167.1C87.3 167.7 87.3 168.3 87.3 168.9C87.4 170.2 87.9 170.6 89.3 170.5C89.4 170.5 89.6 170.5 89.8 170.5C89.4 172.1 88 173.1 86.2 173.1C84.1 173.1 83 172.1 82.4 169.5C81.8 170.2 81.2 171.1 80.5 171.8C78.7 173.4 75.4 173.6 73.5 172.2C71.5 170.7 70.8 167.8 71.7 165.4C73.2 161.4 78.2 160.3 81.6 161.9C81.8 162.2 82.1 162.3 82.5 162.5ZM82.4 165.9C82.5 165.1 82.5 164.3 82.5 163.5C82.5 163.3 82.3 162.9 82.1 162.8C80.5 162.1 78.4 162.6 77.4 164C76.5 165.3 76.2 166.7 76.5 168.2C76.7 169.2 77.2 170.1 78.3 170.5C80.2 171.2 82.4 169.7 82.5 167.7C82.4 167.1 82.4 166.5 82.4 165.9Z" fill="#302E3F"/>
<path d="M185.3 162.2C185.3 165.2 185.7 167.9 188.3 169.5C191.2 171.3 194 170.3 196.8 168.5C195.9 170.7 194.5 172.1 192.5 172.8C189.2 173.8 186.1 173.5 183.3 171.3C181.8 170.1 180.8 168.5 180.4 166.6C179.8 163.5 179.7 160.4 181.2 157.5C182.5 154.8 184.7 153.3 187.6 152.8C190 152.4 192.3 152.7 194.4 154C197.1 155.6 198 159.1 197.5 161.8C197.5 162 197 162.2 196.7 162.2C193.3 162.2 189.8 162.2 186.4 162.2C186.1 162.2 185.8 162.2 185.3 162.2ZM185.3 161.2C187.7 161.2 190 161.2 192.3 161.2C192.5 161.2 192.7 160.9 192.8 160.8C192.9 158.9 192.9 157 192.1 155.2C191.6 154.1 190.8 153.4 189.6 153.4C188.4 153.3 187.3 153.8 186.7 154.9C185.5 156.7 185.3 158.9 185.3 161.2Z" fill="#302E3F"/>
<path fill-rule="evenodd" clip-rule="evenodd" d="M504.726 156.342L521.719 147.537L538.905 156.342L521.719 165.177L504.726 156.342ZM606.761 160.619V160.407C606.761 157.51 608.47 156.545 611.348 156.786V151.486C604.454 151.07 601.19 154.508 601.19 160.407V160.619H598.072V165.92H601.19V181.967H606.761V165.92H613.172V181.967H618.724V165.92H623.301V160.619H618.724V160.407C618.724 157.51 620.394 156.545 623.301 156.786V151.486C616.417 151.07 613.143 154.508 613.143 160.407V160.619H606.732H606.761ZM567.803 166.412C568.712 165.705 569.444 164.794 569.938 163.753C570.433 162.711 570.677 161.569 570.651 160.417C570.651 155.415 566.577 152.007 561.45 152.007H549.554V181.938H562.406C567.658 181.938 571.848 178.404 571.848 173.248C571.853 171.853 571.479 170.482 570.767 169.282C570.054 168.081 569.03 167.096 567.803 166.432V166.412ZM561.479 157.549C561.912 157.535 562.344 157.611 562.746 157.773C563.149 157.934 563.514 158.177 563.818 158.486C564.121 158.796 564.358 159.165 564.512 159.57C564.666 159.975 564.735 160.408 564.713 160.841C564.729 161.273 564.657 161.704 564.5 162.106C564.344 162.509 564.107 162.876 563.805 163.184C563.502 163.492 563.14 163.735 562.74 163.899C562.34 164.062 561.911 164.142 561.479 164.134H555.512V157.568L561.479 157.549ZM562.377 176.406H555.512V169.396H562.377C563.309 169.396 564.203 169.766 564.862 170.425C565.521 171.084 565.891 171.978 565.891 172.91C565.891 173.843 565.521 174.736 564.862 175.396C564.203 176.055 563.309 176.425 562.377 176.425V176.406ZM589.228 160.552V172.138C589.228 175.846 587.19 177.439 584.468 177.439C581.948 177.439 580.181 175.942 580.181 173.036V160.552H574.61V173.702C574.61 179.389 578.172 182.537 582.788 182.537C585.684 182.537 587.943 181.455 589.199 179.544V181.938H594.77V160.552H589.228ZM646.444 173.49H630.137C630.948 176.299 633.284 177.497 636.19 177.497C637.104 177.533 638.013 177.361 638.85 176.993C639.686 176.625 640.428 176.071 641.018 175.372L645.537 177.931C644.478 179.43 643.059 180.638 641.41 181.443C639.761 182.248 637.936 182.624 636.103 182.537C628.852 182.537 624.266 177.622 624.266 171.25C624.22 169.744 624.484 168.245 625.043 166.847C625.602 165.448 626.443 164.179 627.514 163.12C628.585 162.061 629.862 161.234 631.267 160.691C632.672 160.148 634.174 159.9 635.679 159.963C642.061 159.963 646.618 164.964 646.618 171.25C646.623 172.013 646.565 172.775 646.444 173.528V173.49ZM635.708 164.926C634.4 164.828 633.102 165.213 632.059 166.009C631.016 166.804 630.301 167.954 630.05 169.241H641.076C640.849 168 640.18 166.884 639.193 166.097C638.206 165.311 636.968 164.909 635.708 164.964V164.926ZM654.709 164.23V160.552H649.138V181.938H654.709V171.732C654.709 167.233 658.368 165.939 661.275 166.306V160.166C658.552 160.166 655.819 161.372 654.709 164.269V164.23ZM521.719 180.277L510.132 173.992L504.735 176.888L521.728 186.09L538.905 176.966L533.44 174.069L521.719 180.277ZM510.132 164.076L521.719 169.772L533.44 164.076L538.905 166.731L521.719 175.092L504.726 166.731L510.132 164.076Z" fill="#302E3F"/>
<path d="M297.312 298.472C296.114 298.627 295.008 299.194 294.182 300.075C293.357 300.957 292.864 302.098 292.787 303.303C292.711 304.508 293.056 305.703 293.763 306.681C294.471 307.66 295.497 308.362 296.665 308.668C296.983 308.745 297.312 308.784 297.63 308.87H298.277C298.356 308.837 298.437 308.808 298.519 308.784C299.848 308.579 301.046 307.866 301.861 306.796C302.676 305.726 303.043 304.382 302.887 303.046C302.731 301.71 302.062 300.487 301.022 299.634C299.983 298.781 298.652 298.364 297.312 298.472Z" fill="#302E3F"/>
<path d="M302.39 264.273L302.748 263.916C303.29 263.359 303.696 262.683 303.934 261.943C304.171 261.203 304.235 260.417 304.119 259.648C303.962 258.387 303.345 257.229 302.386 256.395C301.427 255.561 300.195 255.111 298.924 255.13C298.215 255.144 297.516 255.298 296.866 255.583C296.217 255.868 295.63 256.278 295.139 256.79L273.261 278.621L272.981 278.901C272.467 279.444 272.079 280.092 271.842 280.801C271.605 281.51 271.526 282.262 271.61 283.004C271.748 284.276 272.35 285.452 273.301 286.307C274.253 287.163 275.486 287.637 276.766 287.639H277.335C278.637 287.467 279.843 286.857 280.753 285.91C287.927 278.698 295.139 271.447 302.39 264.273Z" fill="#302E3F"/>
<path d="M302.39 273.059C301.637 273.048 300.889 273.193 300.194 273.486C299.499 273.778 298.873 274.212 298.354 274.759C294.492 278.621 290.746 282.415 286.923 286.2C285.832 287.33 284.663 288.411 283.611 289.541C283.044 290.115 282.624 290.818 282.387 291.59C282.15 292.361 282.103 293.179 282.25 293.973C282.399 294.911 282.804 295.789 283.419 296.513C284.034 297.237 284.837 297.778 285.738 298.077C286.64 298.376 287.606 298.421 288.532 298.208C289.458 297.995 290.307 297.532 290.988 296.869C295.976 291.951 300.942 286.998 305.885 282.01C306.372 281.532 306.755 280.961 307.013 280.33C307.27 279.699 307.396 279.022 307.382 278.341C307.382 278.022 307.382 277.694 307.295 277.375C307.09 276.206 306.492 275.14 305.601 274.356C304.709 273.571 303.577 273.114 302.39 273.059Z" fill="#302E3F"/>
<path d="M428.332 297.931C428.226 297.184 427.856 296.499 427.29 296C426.769 295.564 426.203 295.185 425.6 294.871C424.789 294.465 423.949 294.185 423.138 293.779C422.796 293.615 422.472 293.414 422.172 293.181C421.972 293.029 421.838 292.805 421.8 292.556C421.762 292.307 421.823 292.053 421.97 291.848C422.057 291.771 422.134 291.646 422.25 291.607C422.456 291.459 422.689 291.351 422.935 291.288C423.647 291.138 424.386 291.192 425.069 291.443C425.716 291.684 426.286 292.013 426.923 292.293C427.251 291.646 427.57 290.922 427.975 290.275C428.016 290.221 428.045 290.159 428.059 290.093C428.073 290.027 428.072 289.958 428.056 289.893C428.041 289.827 428.011 289.766 427.968 289.713C427.926 289.661 427.872 289.618 427.811 289.589C426.458 288.687 424.848 288.249 423.225 288.344C422.016 288.34 420.834 288.704 419.836 289.386C419.382 289.705 419.007 290.125 418.743 290.613C418.478 291.101 418.33 291.644 418.31 292.199C418.291 292.753 418.4 293.305 418.629 293.811C418.859 294.316 419.203 294.762 419.633 295.112C420.012 295.436 420.435 295.706 420.888 295.913C421.69 296.319 422.539 296.637 423.341 297.004C423.747 297.163 424.128 297.381 424.47 297.651C424.666 297.743 424.827 297.894 424.931 298.084C425.036 298.273 425.077 298.49 425.05 298.704C425.024 298.919 424.93 299.119 424.782 299.277C424.635 299.434 424.441 299.541 424.229 299.582C424.074 299.65 423.912 299.701 423.746 299.737C422.998 299.866 422.229 299.782 421.526 299.495C420.761 299.22 420.052 298.812 419.43 298.288L417.905 300.664L418.021 300.789C419.082 301.725 420.382 302.349 421.776 302.591C423.17 302.833 424.604 302.684 425.919 302.16C426.481 301.956 426.989 301.624 427.401 301.19C427.813 300.756 428.119 300.232 428.294 299.659C428.367 299.449 428.421 299.232 428.458 299.013V298.047C428.332 298.028 428.332 297.989 428.332 297.931Z" fill="#302E3F"/>
<path d="M331.182 283.246C331.126 283.236 331.069 283.238 331.013 283.252C330.958 283.265 330.906 283.29 330.861 283.324C330.816 283.359 330.778 283.402 330.75 283.452C330.722 283.501 330.705 283.556 330.699 283.612C329.734 286.432 328.768 289.251 327.803 292.07C327.082 293.963 326.476 295.898 325.988 297.863C325.959 298.056 325.907 298.244 325.833 298.423C325.752 298.333 325.696 298.223 325.669 298.105C325.466 297.381 325.35 296.657 325.109 295.923C323.738 291.781 322.328 287.629 320.919 283.526C320.913 283.479 320.898 283.434 320.874 283.394C320.85 283.354 320.818 283.319 320.78 283.291C320.741 283.264 320.698 283.245 320.652 283.236C320.606 283.226 320.559 283.226 320.513 283.236H317.452C317.356 283.228 317.26 283.244 317.172 283.284C317.212 283.373 317.238 283.467 317.25 283.564C319.499 289.724 321.759 295.884 324.008 302.054C324.031 302.132 324.077 302.202 324.141 302.252C324.206 302.302 324.284 302.331 324.366 302.334H327.185C327.292 302.351 327.402 302.327 327.492 302.266C327.581 302.205 327.644 302.112 327.668 302.006C329.724 296.29 331.819 290.612 333.914 284.887C334.117 284.366 334.272 283.844 334.474 283.284C333.364 283.294 332.273 283.294 331.182 283.246Z" fill="#302E3F"/>
<path d="M357.241 279.828C357.844 279.518 358.425 279.166 358.979 278.775L357.647 276.323C357.57 276.323 357.57 276.323 357.57 276.323L357.328 276.487C356.145 277.37 354.69 277.811 353.215 277.732C352.454 277.689 351.722 277.426 351.106 276.975C350.491 276.525 350.02 275.906 349.749 275.193C349.647 274.838 349.566 274.477 349.508 274.112H359.095C359.095 273.339 359.095 272.615 359.095 271.891C358.854 269.197 357.164 266.571 353.659 266.33C352.416 266.184 351.158 266.391 350.026 266.925C348.895 267.459 347.936 268.3 347.258 269.352C346.501 270.556 346.112 271.956 346.138 273.378C346.066 274.927 346.52 276.455 347.426 277.714C348.333 278.972 349.638 279.887 351.13 280.31C353.153 280.94 355.342 280.767 357.241 279.828ZM352.047 269.11C352.552 269.009 353.069 268.983 353.582 269.033C354.221 269.16 354.789 269.519 355.177 270.043C355.564 270.566 355.742 271.214 355.677 271.862H349.749C349.791 271.219 350.036 270.606 350.449 270.112C350.862 269.617 351.422 269.266 352.047 269.11Z" fill="#302E3F"/>
<path d="M341.697 288.324C340.532 288.267 339.373 288.516 338.334 289.046C337.296 289.576 336.414 290.369 335.778 291.346C334.862 292.779 334.476 294.487 334.687 296.174C334.756 297.316 335.114 298.422 335.727 299.388C336.34 300.353 337.188 301.148 338.192 301.697C339.663 302.423 341.31 302.717 342.942 302.546C344.573 302.375 346.123 301.746 347.412 300.731C347.461 300.731 347.461 300.654 347.499 300.615C347.055 299.804 346.65 299.041 346.206 298.192L345.926 298.395C344.981 299.091 343.868 299.521 342.701 299.64C341.736 299.787 340.751 299.573 339.935 299.038C339.119 298.504 338.529 297.686 338.279 296.744L338.153 296.019H347.615C347.741 295.152 347.741 294.271 347.615 293.403C347.438 291.971 346.733 290.658 345.638 289.718C344.544 288.779 343.138 288.282 341.697 288.324ZM344.207 293.799H338.279C338.359 292.984 338.754 292.232 339.379 291.704C339.809 291.335 340.331 291.091 340.889 290.998C341.447 290.904 342.02 290.964 342.546 291.173C343.067 291.375 343.51 291.74 343.809 292.212C344.107 292.685 344.247 293.241 344.207 293.799Z" fill="#302E3F"/>
<path d="M410.171 288.324C409.113 288.276 408.058 288.477 407.092 288.912C406.126 289.346 405.276 290.001 404.61 290.825C403.638 292.128 403.11 293.708 403.103 295.334C403.034 296.832 403.452 298.313 404.294 299.554C405.137 300.795 406.358 301.729 407.777 302.218C409.78 302.896 411.965 302.796 413.898 301.938C414.645 301.634 415.339 301.213 415.954 300.692C415.51 299.881 415.066 299.08 414.661 298.269C413.665 299.095 412.444 299.603 411.156 299.727C410.502 299.817 409.836 299.751 409.213 299.533C408.59 299.314 408.028 298.951 407.574 298.472C406.978 297.821 406.635 296.978 406.608 296.097H416.109C416.109 295.334 416.109 294.61 416.109 293.885C416.089 293.129 415.919 292.384 415.609 291.693C415.299 291.003 414.855 290.381 414.302 289.864C413.75 289.346 413.1 288.944 412.391 288.68C411.682 288.415 410.927 288.294 410.171 288.324ZM412.672 293.799H406.705C406.776 293.331 406.941 292.884 407.19 292.482C407.439 292.08 407.766 291.733 408.153 291.462C408.537 291.212 408.97 291.047 409.423 290.978C409.876 290.91 410.339 290.94 410.779 291.066C411.366 291.225 411.878 291.587 412.225 292.087C412.571 292.587 412.729 293.193 412.672 293.799Z" fill="#302E3F"/>
<path d="M333.123 280.31C333.705 280.511 334.313 280.631 334.928 280.668C335.93 280.758 336.935 280.555 337.823 280.083C338.711 279.612 339.443 278.892 339.93 278.012C339.973 277.948 340.011 277.88 340.045 277.81V280.349H343.241V266.697H339.881V272.741C339.924 273.751 339.687 274.753 339.196 275.637C338.88 276.247 338.39 276.749 337.789 277.079C337.187 277.409 336.5 277.553 335.817 277.491C335.412 277.508 335.015 277.378 334.698 277.127C334.381 276.875 334.164 276.518 334.088 276.12C333.97 275.634 333.914 275.134 333.924 274.633V266.619H330.545V275.473C330.552 276.001 330.601 276.527 330.69 277.047C330.74 277.767 330.996 278.457 331.427 279.036C331.859 279.614 332.447 280.057 333.123 280.31Z" fill="#302E3F"/>
<path d="M386.323 289.087V294.764C386.332 295.535 386.198 296.301 385.927 297.024C385.691 297.736 385.245 298.361 384.646 298.814C384.048 299.267 383.326 299.529 382.577 299.563C382.321 299.611 382.058 299.605 381.805 299.544C381.552 299.483 381.314 299.368 381.109 299.208C380.903 299.049 380.734 298.847 380.613 298.617C380.491 298.386 380.42 298.133 380.404 297.873C380.34 297.474 380.314 297.07 380.327 296.666V288.691H376.938V297.545C376.946 298.13 377.014 298.712 377.141 299.283C377.24 299.962 377.522 300.601 377.955 301.133C378.389 301.665 378.958 302.07 379.603 302.305C380.335 302.569 381.114 302.678 381.891 302.624C382.794 302.613 383.678 302.366 384.456 301.906C385.234 301.447 385.877 300.792 386.323 300.007C386.323 300.007 386.41 299.881 386.487 299.804V302.257H389.712V288.604H386.323V289.087Z" fill="#302E3F"/>
<path d="M360.833 288.691C360.059 288.404 359.234 288.279 358.41 288.324C357.488 288.321 356.583 288.562 355.784 289.021C354.986 289.481 354.323 290.143 353.862 290.941C353.823 291.019 353.767 291.089 353.698 291.143V288.643H350.483V302.257H353.862V296C353.861 295.527 353.903 295.055 353.988 294.59C354.138 293.693 354.6 292.878 355.292 292.288C355.984 291.698 356.863 291.371 357.772 291.366C358.029 291.328 358.29 291.343 358.539 291.412C358.789 291.481 359.022 291.6 359.223 291.764C359.423 291.928 359.588 292.131 359.706 292.362C359.823 292.592 359.892 292.845 359.906 293.103C359.97 293.545 359.996 293.99 359.983 294.436V302.247H363.324V293.557C363.33 292.965 363.278 292.373 363.17 291.79C363.122 291.103 362.875 290.445 362.461 289.895C362.046 289.345 361.481 288.926 360.833 288.691Z" fill="#302E3F"/>
<path d="M320.629 272.654H326.422C326.992 272.654 326.905 272.741 326.905 272.171V269.671H320.629V264.235H328.121V261.338H317.172V280.311H320.59L320.629 272.654Z" fill="#302E3F"/>
<path d="M373.317 299.437C373.023 299.449 372.729 299.402 372.453 299.298C372.178 299.195 371.925 299.037 371.711 298.835C371.497 298.632 371.326 298.389 371.207 298.12C371.088 297.85 371.024 297.56 371.019 297.265C370.942 295.411 371.019 293.596 371.019 291.752C371.019 291.549 371.135 291.549 371.261 291.549H374.157V288.846H371.058V284.984C370.932 284.984 370.855 284.984 370.778 284.984H368.074C367.794 284.984 367.756 285.071 367.756 285.351V288.575C367.773 288.707 367.773 288.84 367.756 288.971H365.941V291.675H367.717V293.442C367.717 295.054 367.717 296.705 367.794 298.317C367.823 299.16 368.109 299.974 368.612 300.651C369.116 301.327 369.814 301.833 370.614 302.102C371.39 302.427 372.225 302.591 373.066 302.585C373.51 302.585 373.954 302.585 374.437 302.585V299.486C373.964 299.437 373.636 299.486 373.317 299.437Z" fill="#302E3F"/>
<path d="M367.032 277.453H366.414C366.127 277.473 365.843 277.385 365.618 277.207C365.392 277.028 365.242 276.771 365.197 276.487C365.152 276.128 365.127 275.767 365.12 275.406V261.338H361.741V275.956C361.741 276.47 361.779 276.983 361.857 277.491C361.915 278.065 362.125 278.613 362.464 279.079C362.803 279.546 363.26 279.914 363.788 280.146C364.829 280.535 365.953 280.648 367.051 280.475L367.032 277.453Z" fill="#302E3F"/>
<path d="M401.51 288.488C401.051 288.489 400.592 288.527 400.139 288.604C399.4 288.8 398.721 289.175 398.16 289.695C397.599 290.215 397.175 290.865 396.924 291.588L396.76 291.993V288.691H393.535V302.305H396.924V297.062C396.916 296.469 396.968 295.877 397.079 295.295C397.167 294.486 397.506 293.725 398.047 293.117C398.589 292.51 399.307 292.086 400.101 291.906C400.648 291.83 401.199 291.791 401.752 291.79V288.691C401.752 288.604 401.588 288.488 401.51 288.488Z" fill="#302E3F"/>
<path d="M551.3 58.2999V25.3999H571.6V30.9999H557.1V39.0999H564.5V44.6999H557.1V58.1999H551.3V58.2999Z" fill="#302F3F"/>
<path fill-rule="evenodd" clip-rule="evenodd" d="M563.4 43.0998C562.9 44.4998 562.6 45.8998 562.6 47.3998C562.6 49.3998 563.1 51.2998 564.1 52.9998C565.1 54.6998 566.4 55.9998 568.1 56.8998C569.8 57.8998 571.7 58.2998 573.8 58.2998C575.6 58.2998 577.3 57.8998 578.9 57.0998C580.5 56.2998 581.7 55.2998 582.7 53.8998L579 50.9998C578.4 51.7998 577.7 52.3998 576.7 52.7998C575.8 53.1998 574.8 53.3998 573.8 53.3998C572.3 53.3998 571 52.9998 570 52.1998C569 51.3998 568.3 50.2998 568 48.9998H584C584.1 48.4998 584.1 47.8998 584.1 47.2998C584.1 45.2998 583.7 43.4998 582.8 41.7998C581.9 40.0998 580.6 38.7998 579 37.7998C577.4 36.7998 575.5 36.2998 573.5 36.2998C571.9 36.2998 570.4 36.5998 569 37.1998C567.6 37.7998 566.5 38.5998 565.6 39.5998C564.6 40.4998 563.9 41.6998 563.4 43.0998ZM578.6 44.8998H568.1C568.5 43.7998 569.2 42.7998 570.1 42.1998C571.1 41.4998 572.2 41.1998 573.4 41.1998C574.7 41.1998 575.9 41.5998 576.8 42.2998C577.9 42.9998 578.4 43.8998 578.6 44.8998Z" fill="#302F3F"/>
<path fill-rule="evenodd" clip-rule="evenodd" d="M581.3 43.0999C580.8 44.4999 580.5 45.9 580.5 47.4C580.5 49.4 581 51.3 582 53C583 54.7 584.3 56 586 56.9C587.7 57.9 589.6 58.2999 591.7 58.2999C593.5 58.2999 595.2 57.8999 596.8 57.0999C598.4 56.2999 599.6 55.3 600.6 53.9L596.9 50.9C596.3 51.7 595.6 52.3 594.6 52.7C593.7 53.1 592.7 53.2999 591.7 53.2999C590.2 53.2999 588.9 52.8999 587.9 52.0999C586.9 51.2999 586.2 50.2 585.9 48.9H601.9C602 48.4 602 47.8 602 47.2C602 45.2 601.6 43.4 600.7 41.7C599.8 40 598.5 38.7 596.9 37.7C595.3 36.7 593.4 36.2 591.4 36.2C589.8 36.2 588.3 36.4999 586.9 37.0999C585.5 37.6999 584.4 38.5 583.5 39.5C582.5 40.5 581.8 41.6999 581.3 43.0999ZM596.5 44.9H586C586.4 43.8 587.1 42.8 588 42.2C589 41.5 590.1 41.2 591.3 41.2C592.6 41.2 593.8 41.5999 594.7 42.2999C595.8 42.9999 596.3 43.9 596.5 44.9Z" fill="#302F3F"/>
<path d="M600.2 50.2999C600.2 52.8999 600.8 54.7999 602.2 56.1999C603.5 57.5999 605.4 58.2999 607.8 58.2999C608.7 58.2999 609.7 58.1999 611 57.8999V52.8999C610.6 52.9999 610.1 52.9999 609.6 52.9999C608.2 52.9999 607.3 52.6999 606.8 51.9999C606.3 51.2999 606.1 50.1999 606.1 48.5999V25.5999H600.4V50.2999H600.2Z" fill="#302F3F"/>
<path d="M74.1214 274.353C76.5029 276.902 77.7951 280.28 77.7228 283.767C77.7976 287.258 76.5052 290.639 74.1214 293.19C72.9652 294.422 71.5613 295.396 70.0021 296.046C68.4428 296.697 66.7635 297.01 65.0745 296.966C63.4199 296.994 61.7826 296.625 60.2994 295.891C58.8162 295.157 57.5303 294.079 56.549 292.746V296.357H51.4414V260.855H56.5973V274.759C57.5761 273.42 58.8604 272.335 60.3432 271.592C61.826 270.85 63.4646 270.473 65.1228 270.491C66.8123 270.449 68.4909 270.773 70.044 271.439C71.597 272.106 72.9878 273.1 74.1214 274.353ZM70.1821 289.724C71.6818 288.093 72.4885 285.943 72.4318 283.728C72.491 281.51 71.6841 279.356 70.1821 277.723C69.4577 276.913 68.562 276.274 67.5599 275.853C66.5579 275.432 65.4747 275.24 64.389 275.29C63.2911 275.257 62.199 275.462 61.1875 275.89C60.176 276.318 59.2689 276.96 58.5283 277.771C57.1069 279.438 56.3261 281.557 56.3261 283.748C56.3261 285.938 57.1069 288.057 58.5283 289.724C59.2767 290.529 60.1909 291.162 61.2078 291.578C62.2247 291.995 63.32 292.186 64.418 292.138C65.4976 292.188 66.5749 291.998 67.5718 291.58C68.5687 291.163 69.4603 290.529 70.1821 289.724Z" fill="#302E3F"/>
<path d="M106.495 285.737H86.7696C87.5228 289.676 90.2841 292.341 95.16 292.341C98.2209 292.289 101.2 291.346 103.734 289.628L105.887 293.422C102.698 295.698 98.8847 296.936 94.9669 296.966C85.5048 296.966 81.4496 290.361 81.4496 283.709C81.3869 281.98 81.6698 280.256 82.2815 278.638C82.8933 277.02 83.8217 275.54 85.0124 274.286C86.2201 273.046 87.6736 272.072 89.2798 271.427C90.8861 270.781 92.6094 270.479 94.3393 270.539C95.9772 270.477 97.6106 270.748 99.1407 271.336C100.671 271.923 102.066 272.815 103.241 273.957C105.53 276.255 106.708 279.345 106.708 283.284C106.699 284.106 106.628 284.926 106.495 285.737ZM86.7696 281.517H101.484C101.367 279.711 100.557 278.02 99.2212 276.798C97.8859 275.576 96.1296 274.918 94.32 274.961C90.429 274.961 87.5228 277.588 86.7696 281.517Z" fill="#302E3F"/>
<path d="M131.483 271.119H136.455V296.376H131.483V292.91C130.447 294.198 129.131 295.232 127.635 295.935C126.14 296.637 124.503 296.99 122.851 296.965C121.156 297.008 119.471 296.685 117.912 296.018C116.353 295.352 114.955 294.358 113.814 293.103C111.429 290.516 110.148 287.101 110.241 283.583C110.18 281.862 110.463 280.146 111.075 278.536C111.687 276.926 112.615 275.454 113.804 274.208C114.969 272.995 116.375 272.039 117.931 271.402C119.488 270.765 121.16 270.461 122.841 270.51C124.502 270.485 126.146 270.844 127.645 271.559C129.144 272.274 130.458 273.326 131.483 274.633V271.119ZM129.426 289.772C130.958 288.139 131.781 285.966 131.714 283.728C131.774 281.503 130.951 279.344 129.426 277.723C128.666 276.937 127.755 276.313 126.748 275.886C125.741 275.46 124.659 275.24 123.566 275.24C122.472 275.24 121.39 275.46 120.383 275.886C119.376 276.313 118.465 276.937 117.705 277.723C116.211 279.376 115.409 281.539 115.465 283.767C115.401 285.995 116.204 288.162 117.705 289.811C118.448 290.617 119.356 291.252 120.368 291.674C121.379 292.095 122.47 292.293 123.566 292.254C124.661 292.279 125.749 292.07 126.758 291.643C127.767 291.215 128.673 290.577 129.417 289.772H129.426Z" fill="#302E3F"/>
<path d="M180.019 273.368C180.988 274.437 181.734 275.687 182.217 277.046C182.699 278.405 182.907 279.846 182.829 281.286V296.377H177.673V282.135C177.673 277.684 175.433 275.241 171.88 275.241C168.124 275.241 165.546 278.012 165.546 282.27V296.377H160.448V282.222C160.448 277.868 158.199 275.241 154.655 275.241C150.909 275.241 148.283 278.051 148.283 282.367V296.377H143.069V271.119H148.128V274.759C148.89 273.411 150.002 272.293 151.346 271.525C152.691 270.757 154.217 270.366 155.766 270.394C157.369 270.352 158.952 270.766 160.33 271.588C161.708 272.41 162.824 273.607 163.548 275.039C164.559 273.561 165.925 272.361 167.521 271.549C169.117 270.738 170.892 270.341 172.681 270.394C174.046 270.333 175.409 270.566 176.675 271.08C177.942 271.593 179.082 272.374 180.019 273.368Z" fill="#302E3F"/>
<path d="M182.955 299.177H51.0359V303.135H182.955V299.177Z" fill="#302E3F"/>
<path d="M196.3 56.4999C195.4 57.1999 194.5 58.0999 193.5 58.4999C190.6 59.7999 187.7 61.0999 184.7 62.0999C181 63.3999 178.1 61.7999 175.9 58.7999C175.8 58.5999 175.6 58.3999 175.6 58.4999C172.3 59.6999 169.2 60.8999 166.1 61.7999C163.2 62.5999 160.3 62.2999 157.5 61.1999C156.7 60.8999 155.7 60.9999 154.8 60.9999C154.3 60.9999 151.1 61.9999 145.3 60.6999C143.4 60.4999 142.2 58.7999 141.4 56.9999C141.1 56.2999 140.8 55.6999 140.4 54.7999C139.5 55.8999 138.9 56.8999 138.1 57.6999C137.1 58.7999 135.9 59.8999 134.7 60.6999C133.8 61.2999 132.8 61.1999 132.3 60.0999C131.9 59.0999 131.2 59.2999 130.4 59.5999C128.4 60.3999 126.5 61.2999 124.4 61.8999C121.7 62.7999 119 62.4999 116.6 60.9999C115.8 60.4999 115.3 59.7999 114.6 59.2999C112.9 59.8999 111.1 60.3999 109.4 61.0999C107.2 61.9999 104.9 61.9999 102.7 61.2999C100.1 60.4999 97.6 61.1999 95.1 61.2999C92.3 61.2999 89.6 60.8999 86.8 60.8999C85.6 60.8999 84.3 61.1999 83.2 61.7999C81.2 62.7999 79.4 62.5999 77.5 61.6999C75.6 60.7999 74.2 59.2999 73.7 57.2999C73.3 55.4999 73.3 53.5999 73.3 51.7999C73.2 50.4999 73.9 49.6999 75.2 49.4999C75.8 49.3999 76.4 49.0999 77.3 48.7999C77.2 49.7999 77.2 50.5999 77.1 51.3999C76.6 53.8999 76.9 56.2999 78.2 58.4999C79.5 60.7999 82.6 61.3999 84.9 59.8999C85.6 59.4999 86.3 59.0999 87 58.7999C88.5 58.1999 90.6 54.7999 90.4 53.1999C90.3 51.7999 88.9 51.0999 87 51.5999C86.4 51.6999 85.8 51.7999 84.9 51.9999C85.2 51.4999 85.2 51.1999 85.4 50.9999C86.9 49.5999 90.1 49.1999 91.9 49.9999C93.3 50.6999 93.7 51.7999 93 53.0999C92.2 54.5999 91.3 56.0999 90.3 57.3999C89.4 58.5999 89.8 59.1999 91 59.4999C94.5 60.2999 98.1 60.7999 101.4 58.6999C103.3 57.5999 104.1 55.6999 104.5 53.6999C104.7 52.8999 104.3 51.8999 103 51.8999C101.8 51.8999 100.5 51.8999 99.2 51.8999C100 50.1999 102.7 49.2999 104.8 49.6999C107.5 50.2999 108 51.3999 106.7 53.7999C106 55.1999 105.1 56.4999 104.2 57.6999C103.6 58.5999 103.6 59.1999 104.6 59.4999C105.5 59.7999 106.6 60.0999 107.5 59.8999C109.6 59.4999 111.6 58.7999 113.6 58.1999C114 58.0999 114.4 57.6999 114.6 57.2999C115 56.3999 115.4 55.4999 115.7 54.4999C116.4 51.7999 118.3 50.3999 120.8 49.7999C121.7 49.5999 123 49.6999 123.5 50.1999C124.3 50.9999 124.1 52.3999 123.1 53.1999C122 54.1999 120.8 55.0999 119.5 55.7999C117.7 56.7999 117.6 57.4999 119.1 58.8999C121.1 60.7999 124.8 61.1999 127.7 59.6999C128 59.5999 128.2 59.3999 128.5 59.1999C131 58.0999 131 58.0999 130.5 55.3999C130.3 54.2999 130.2 53.1999 130 52.0999C129.8 50.6999 131.6 48.8999 132.9 49.3999C133.2 49.4999 133.5 50.1999 133.5 50.5999C133.7 52.1999 133.7 53.7999 133.9 55.2999C134 55.8999 134.5 56.4999 134.8 56.9999C135.2 56.6999 135.8 56.3999 136.1 55.8999C137 54.5999 137.8 53.1999 138.6 51.7999C139.4 50.4999 140.8 49.9999 142.4 49.4999C142.5 52.7999 143 55.7999 145.6 57.3999C148.2 59.0999 151.2 60.1999 154.3 59.8999C153.7 56.9999 153.1 54.2999 152.5 51.4999C152.5 51.3999 152.3 51.0999 152.4 51.0999C154 49.6999 153.3 47.6999 153.9 45.9999C154 45.7999 154.1 45.3999 154.3 45.2999C154.9 44.8999 155.6 44.1999 156 44.2999C156.9 44.4999 156.9 45.3999 156.6 46.2999C156.5 46.4999 156.5 46.7999 156.5 47.0999C156.4 49.2999 156.6 49.4999 158.8 49.1999C163.2 48.5999 167.5 47.4999 171.6 45.8999C172.2 45.6999 172.8 45.5999 173.4 45.3999C173.5 45.5999 173.5 45.6999 173.6 45.8999C171.8 46.5999 170 47.3999 168.2 47.9999C164.6 49.0999 161 49.9999 157.4 50.8999C156.4 51.0999 155.9 51.4999 156.1 52.4999C156.4 54.0999 156.4 55.7999 157.1 57.2999C157.6 58.2999 158.7 59.3999 159.8 59.7999C163.3 61.0999 166.9 61.1999 170.5 59.4999C173.3 58.1999 175.8 56.9999 174.7 53.0999C173.9 50.0999 176 49.1999 178.7 48.5999C178.6 49.4999 178.6 50.2999 178.4 51.0999C177.5 55.0999 178.8 58.5999 182.2 59.6999C184.1 60.2999 186.4 59.9999 188.4 59.4999C190.2 59.0999 191.8 57.7999 193.5 56.8999C194.2 56.4999 195 56.0999 195.7 55.6999C196.2 56.1999 196.2 56.2999 196.3 56.4999ZM118.6 54.3999C118.8 54.4999 119 54.5999 119.1 54.6999C119.8 54.0999 120.5 53.5999 121.1 52.8999C121.3 52.6999 121 52.0999 121 51.5999C120.6 51.6999 120 51.5999 119.9 51.8999C119.3 52.7999 119 53.5999 118.6 54.3999Z" fill="#302F40"/>
<path d="M63.9 30.0001C64 29.5001 63.9 29.0001 64.1 28.6001C66.8 23.7001 67.2 18.4001 66.7 13.1001C66.5 11.3001 65.5 9.50009 64.6 7.90009C64 6.70009 62.6 6.50009 61.5 7.20009C60.1 8.10009 58.7 9.20009 57.8 10.5001C54.1 15.7001 51.6 21.4001 49.8 27.5001C48.6 31.7001 47.4 35.9001 46.2 40.1001C45.9 41.3001 45.8 42.6001 45.6 43.9001C45.5 44.9001 45.9 45.3001 46.9 45.2001C49 45.0001 51.2 44.9001 53.3 44.8001C57.2 44.5001 61.2 44.3001 65.1 44.0001C65.8 44.0001 66.5 43.7001 67.2 43.7001C67.9 43.7001 68.7 43.8001 69.4 43.8001C69.4 44.0001 69.4 44.3001 69.5 44.5001C68.9 44.6001 68.2 44.9001 67.6 44.9001C60.7 45.6001 53.8 46.2001 46.9 46.9001C45.7 47.0001 45.1 47.6001 45.3 48.9001C46.2 56.2001 46.1 63.6001 45.8 70.9001C45.8 71.9001 45.7 73.3001 44.5 73.2001C43.8 73.2001 42.6 72.0001 42.5 71.3001C42.1 68.3001 41.7 65.2001 41.9 62.1001C42.1 57.9001 42.8 53.6001 43.2 49.4001C43.3 48.2001 43 47.5001 41.7 47.7001C41.3 47.8001 40.9 47.8001 40.6 47.6001C40.2 47.4001 39.9 46.9001 39.5 46.6001C39.9 46.3001 40.2 45.7001 40.6 45.6001C43.2 44.7001 43.3 44.8001 42.7 42.0001C42.3 39.9001 41.7 37.9001 41.1 35.5001C40.6 36.8001 40.3 37.6001 39.9 38.5001C38.4 37.0001 37.9 32.8001 38.9 31.4001C39.9 30.0001 41.3 29.9001 42 31.6001C42.9 33.6001 43.5 35.8001 44.1 37.9001C44.3 38.5001 44.4 39.1001 44.8 39.7001C45.2 38.0001 45.6 36.3001 46.1 34.7001C47.8 29.5001 49.4 24.2001 51.3 19.1001C52.9 14.9001 54.9 10.8001 58.1 7.50009C59.1 6.50009 60.3 5.60009 61.7 5.20009C63.5 4.60009 65.2 5.40009 66.4 6.80009C68.6 9.40009 69.1 12.4001 69 15.7001C68.9 20.2001 68.1 24.5001 66.2 28.6001C65.9 29.3001 65.2 29.8001 64.6 30.5001C64.3 30.3001 64.1 30.1001 63.9 30.0001Z" fill="#302F40"/>
<path d="M71.8 51.1999C67.8 52.5999 64 53.6999 60 53.8999C57.7 53.9999 57.6 54.1999 57.6 56.3999C57.6 58.0999 57.7 59.8999 56.3 61.1999C55.7 61.6999 54.9 61.9999 54.1 62.2999C53.8 61.6999 53.5 60.9999 53.4 60.3999C53 57.7999 52.6 55.1999 52.3 52.4999C52.3 52.0999 52.4 51.4999 52.6 51.2999C53.1 50.9999 54 50.5999 54.3 50.7999C55.1 51.3999 56 51.1999 56.8 51.4999C61.5 52.9999 66.1 51.7999 70.7 50.9999C70.9 50.9999 71 50.9999 71.2 50.9999C71.3 50.9999 71.4 50.9999 71.8 51.1999Z" fill="#302F40"/>
<path d="M179.5 41.7999C179.6 43.2999 178.9 43.9 177.6 43.9C176.4 43.9 175.5 43.2999 175.4 42.0999C175.2 41.0999 176.5 40.2 178 40.2C179.1 40.2 179.5 40.5999 179.5 41.7999Z" fill="#302F40"/>
<path d="M76.5 40.0999C77.9 39.8999 78.2 40.6999 78.2 41.6999C78.3 42.7999 77.4 43.7999 76.3 43.7999C75.1 43.6999 74.2 43.1999 74 41.9999C73.9 40.8999 75 40.1999 76.5 40.0999Z" fill="#302F40"/>
<path fill-rule="evenodd" clip-rule="evenodd" d="M659.6 247.6C657.9 247.8 656.2 248.1 654.5 248.1C653.5 248.1 652.5 248.1 651.4 248C650.5 248 649.7 247.9 648.8 247.9C647.9 247.9 647 247.9 646.1 248C644.7 248 643.3 248.1 641.9 248H637.9C635.9 247.8 634 247.9 632 248.1C630.6 248.2 629.2 248.3 627.8 248.3C625.3 248.3 622.8 248.1 620.3 248.1C618.3 248.1 616.3 248.1 614.4 248.2H611.6L603.3 248C603.1 248 602.8 248 602.6 247.9C602.3 247.9 602.1 247.8 601.8 247.8C600.4 248 599 248.1 597.6 248.2C596.2 248.2 594.5 247.8 593 247.8C592.2 247.8 591.3 247.9 590.5 248C589.6 248.1 588.8 248.2 587.9 248.2C585.7 248.2 583.6 248 581.4 248C580.2 248 579.1 248.1 577.9 248.2H576.1C574.5 248.1 573 247.9 571.4 247.9C570.3 247.9 569.2 248.2 568.1 248.3C567.5 248.3 567 248.2 566.6 248.1C566.2 248 565.9 247.9 565.5 247.9C563.1 247.9 560.6 248.2 558.2 248.2C555.7 248.2 553.3 248.2 550.9 248C548 247.9 545.1 247.8 542.1 247.7C541.8 247.7 541.5 247.8 541.2 247.9C540.7 247.9 540.4 248 540 248C538.9 248 537.7 247.8 536.6 247.8H526.6C526.6 247.8 522.9 248 521.1 248C518.6 248 516 247.9 513.5 247.8C513.1 247.8 512.7 247.9 512.3 247.9H502.4C502.4 247.9 501.3 247 501.2 246.5C501 246.3 501 246 501.1 245.7C501.2 245.4 501.4 245.2 501.6 245.1C501.7 245 501.9 245 502.1 245C503.8 245 505.5 245.2 507.2 245.3C507.5 245.4 507.7 245.4 508 245.3C509.2 244.9 510.4 245.1 511.6 245.2C512.6 245.3 513.5 245.4 514.5 245.2C515.6 245.1 516.8 245 518 245C518.6 245 519.2 245.2 519.8 245.2H529.7L539.1 245.1C539.5 245.1 539.8 245.1 540.2 245.1C540.9 245.1 541.6 245.1 542.4 245.1C544 245.1 545.6 245.3 547.1 245.3C548.6 245.3 550.7 245 552.4 245C553.7 245 555.1 245.2 556.5 245.3C557.9 245.3 559.1 245.4 560.3 245.4H571.2C572.1 245.4 573 245.1 573.9 245C574.3 245 574.8 245 575.3 245.1C575.8 245.2 576.3 245.2 576.8 245.2C580.4 245 584 245.1 587.7 245.3C589.6 245.5 591.4 245.4 593.3 245.2C595.1 245 596.9 244.9 598.7 245.1C600.1 245.1 601.6 245.2 603 245.3C603.6 245.3 604.2 245.2 604.8 245.1H610.2C611.1 245.1 612 245.2 612.9 245.2H628.8C631.5 245.2 634.1 245.3 636.8 245.4C638.6 245.4 640.5 245.4 642.4 245.4C643.4 245.4 644.3 245.4 645.2 245.4C647.3 245.4 649.4 245.2 651.5 245.2C652.5 245.2 653.5 245.4 654.5 245.4H663.7C664.4 245.3 665.1 245.8 665.2 246.5C665.2 246.6 665.3 246.7 665.3 246.7C665.3 247.6 664.6 247.9 663.8 247.9H659.9L659.6 247.6ZM514.1 249.3C510.7 249.3 507.2 249.1 503.8 249.1V249H502.1C501.8 249 501.5 249.2 501.3 249.5C501.1 249.8 501 250.1 501.1 250.5V250.6C501.1 250.9 501.3 251.2 501.5 251.4C501.7 251.6 502.1 251.7 502.4 251.7H513L524.5 251.6H531.7C532.3 251.7 532.9 251.8 533.5 251.8C535.6 251.3 537.8 251.3 539.8 251.8C540.1 251.9 540.5 251.9 540.8 251.8C541.4 251.2 542.1 251.3 542.7 251.4C542.9 251.4 543.2 251.5 543.4 251.5C543.7 251.5 544 251.6 544.4 251.7C544.7 251.8 545 251.9 545.3 251.9C547.3 251.8 549.3 251.6 551.3 251.6C551.7 251.6 552.1 251.6 552.5 251.7C552.9 251.8 553.3 251.8 553.8 251.8C554.8 251.8 555.7 251.6 556.7 251.6C557.4 251.6 558.1 251.6 558.9 251.6C560.4 251.6 561.8 251.6 563.1 251.6C565 251.6 567 251.7 568.8 251.8C570.2 252 571.7 252.1 573.1 252.1C575.1 251.7 577.1 251.7 579.1 252.1C579.5 252.2 580 252.2 580.4 252.1L585.5 251.8C585.9 251.8 586.2 251.9 586.6 251.9H589.6C592.7 252 595.9 252.1 599 252.1C600.9 252.1 602.8 251.8 604.7 251.8C605.1 251.8 605.6 251.8 606 251.9C606.4 252 606.8 252 607.1 252H618.5C619.8 252 621 252.2 622.2 252.2C624 252.2 625.9 252.1 627.7 252.1C628.1 252.1 628.7 252.1 629.1 252.1C629.5 252.1 629.9 252.1 630.2 252.1C630.8 252.1 631.4 251.8 632 251.8H641.4L646.5 251.6C647.1 251.8 647.7 251.9 648.3 251.9C649.7 251.8 651.1 251.6 652.4 251.5C652.8 251.5 653.3 251.6 653.7 251.7C654.2 251.9 654.7 251.9 655.2 251.9C656.7 251.4 658.3 251.4 659.8 251.9C660.1 251.9 660.5 251.9 660.8 251.7C661.1 251.6 661.4 251.6 661.6 251.6C662.1 251.7 662.8 251.8 663.4 251.9C663.5 251.9 663.7 251.9 663.8 251.9C664.1 251.9 664.4 251.7 664.6 251.5C664.8 251.2 664.9 250.9 664.8 250.6C664.9 249.5 664.2 249.5 663.5 249.5H652.8C652.4 249.5 652.1 249.4 651.7 249.3C651.3 249.2 650.9 249.2 650.5 249.1C648.8 249.2 647.2 249.5 645.5 249.5C645 249.5 644.4 249.4 643.9 249.3C643.4 249.2 642.9 249.1 642.4 249.1C639 249.2 635.6 249.4 632.1 249.5C631.6 249.5 631.1 249.4 630.6 249.3C630.5 249.1 630 249 629.6 249C622.5 249 615.3 249.2 608.2 249.2C607 249.3 605.9 249.2 604.7 249.2C604.1 249.2 603.5 249.2 603 249.2C602.6 249.1 602.1 249 601.7 249C601.1 249 600.6 249.3 600.1 249.3H592L576.4 249.5H570.6C569.3 249.5 567.9 249.3 566.6 249.3C562.9 249.1 559.3 249 555.6 249C553.7 249 551.7 249.3 549.7 249.3C549 249.3 548.3 249.3 547.6 249.2C547 249.1 546.4 249.1 545.8 249.1C545.5 249.1 545.2 249.1 544.9 249.2C544.6 249.2 544.3 249.3 544.1 249.3C542.7 249.2 541.3 249.1 540 249H539.5C537 249.1 534.5 249 532.1 249.1C530.5 249.2 528.9 249.1 527.3 249.1C526.5 249.1 525.7 249.1 524.9 249.1C521.3 249.1 517.5 249.3 514.1 249.3ZM520.5 300.6C523.1 297.9 524.5 294.2 524.3 290.3L524.2 288.3C524.2 286.8 524.2 286.6 522.6 286.3C521 286.2 519.3 286.2 517.7 286.5C517.6 286.5 517.5 286.5 517.5 286.5C517.2 286.5 517 286.7 516.8 286.9C516.6 287.1 516.6 287.4 516.6 287.7V292.1C516.7 293.4 516.1 294.6 515 295.1C513.5 295.8 511.7 295.2 510.8 293.8C510.1 293.1 509.8 292.1 509.9 291.1C510 290.5 509.9 290 509.7 289.4C509.5 288.8 509.4 288.2 509.6 287.6C509.9 285.8 510 283.9 509.7 282C509.7 281.3 509.7 280.6 509.7 279.9C509.7 278.5 509.7 277.2 509.7 275.9C509.9 274.3 509.9 272.7 509.7 271.1C509.4 269.8 510 268.5 511.2 268C511.3 267.9 511.4 267.9 511.5 267.8C512.4 267.3 513.2 266.9 514.1 267.8C514.4 267.9 514.6 267.9 514.9 268C515.9 268.3 516.6 269.2 516.6 270.3C516.7 271.2 516.6 272.1 516.5 273C516.4 273.5 516.4 274.1 516.4 274.6C516.4 274.8 516.4 274.9 516.4 275.1C516.6 275.9 517.4 276.5 518.2 276.3C519.3 276.3 520.4 276.5 521.5 276.7C523.8 277.2 524.7 276.3 524.2 274C523.9 272.6 523.8 271.1 524 269.6C524.4 267.1 523.3 264.6 521.1 263.3C520.6 263 520.2 262.5 519.8 262.2C517.2 260.1 513.7 259.3 510.4 260.2C509 260.7 507.7 261.3 506.5 262.1C505.4 262.5 504.5 263.1 503.7 264C501.9 266.2 500.9 269.1 501 272C501.2 274.1 501.1 276.3 501 278.4C500.9 280.1 500.9 281.9 501 283.6C501.1 285.1 501.1 286.7 501.1 288.2C501.1 290.5 501.1 292.7 501.3 295C501.4 296.2 501.9 297.3 502.7 298.2C503 298.5 503.3 298.8 503.6 299.1C505.3 302.4 508.9 302 511.6 303.2C514.2 303.1 516.8 302.5 519.3 301.5C519.9 301.1 520.2 300.9 520.5 300.6ZM590.4 289.4C591.4 288.7 592.5 288.9 593.6 289C593.9 289 594.3 289.1 594.6 289.1C595.3 289.1 595.3 289.7 595.2 290.4C595 291.9 595.3 293.3 596.2 294.5C597.2 295.9 599 296.5 600.7 295.8C603.1 295.3 603.4 292.2 602.6 290.3C601.7 288.2 600.1 286.5 598.2 285.5C596 284.2 594 282.6 592.1 280.9C590.2 279 588.9 276.6 588.4 274C587.7 271 588.3 267.7 590 265.1C591.7 262.5 594.5 260.8 597.6 260.5C599.3 260.3 601 260.5 602.6 260.8C606.7 261.7 608.8 264.5 609.8 268.4C610.3 269.7 610.5 271.1 610.3 272.5C610.3 273.5 609.5 274.4 608.5 274.4H608.3C606.8 273.8 605.3 274.2 603.8 273.7C603.7 273.7 603.7 273.7 603.6 273.6C603.2 273.5 602.8 273.4 602.9 272.8C603.1 269.5 602.3 266.6 598.4 267.4C596.6 267.8 595.5 269.6 595.8 271.4C595.9 272 596.2 272.5 596.5 272.9C597.7 274.4 599.2 275.8 600.8 276.9C602.3 278.2 603.9 279.2 605.4 280.4C607.4 282.1 609 284.3 610 286.8C610.8 288.6 611 290.7 610.4 292.6C610.2 293.1 610.1 293.6 610.1 294.1C610 296 609.1 297.8 607.6 299C607.3 299.2 607.1 299.5 606.8 299.7C605.2 301.5 602.9 302.5 600.5 302.4C597.9 302.6 595.2 302.2 592.7 301.5C592.4 301.5 592.2 301.4 592 301.2C591.2 299.9 589.9 298.9 589.2 297.6C588.2 296.1 587.7 294.3 587.9 292.5C588 291.9 588 291.3 587.9 290.6C587.9 289 588.1 288.7 589.6 288.7C589.9 289.2 590.2 289.3 590.4 289.4ZM554.2 270.9C554.1 269.5 554 268 554 266.6C554 265.2 554.1 263.8 554.1 262.3C554 261.2 553.8 261.1 552.8 261.2C551 261.4 549.3 261.4 547.5 261.2C545.8 261.1 545.4 261.4 545.3 263.1C545.1 264.7 545.3 266.3 545.4 268C545.6 270.2 545.7 272.5 545.2 274.7C545.2 275.1 545.3 275.5 545.5 275.9C545.7 276.4 545.8 276.8 546 277.3C546 277.4 546 277.5 546 277.6C546 277.8 545.9 277.9 545.8 278C545.7 278.1 545.5 278.2 545.4 278.2C543.6 277.9 541.7 277.9 539.9 278.3C539.1 278.5 538.3 278 538.1 277.2C538.1 275.7 538 274.3 537.8 272.8C538 271 538.2 269.2 538.2 267.4C538.1 266.4 538.2 265.4 538.2 264.4C538.2 263.7 538.3 263.1 538.3 262.4V262.3C538.4 261.8 538 261.2 537.5 261.1C536.7 260.9 535.9 261 535 261C534 261.1 533 261.2 531.9 260.7C531.4 260.7 530.9 260.8 530.4 261H530C529.9 261 529.8 261 529.7 261C529.5 261.1 529.3 261.3 529.2 261.5C529.1 261.7 529.1 262 529.2 262.2C529.3 263.6 529.3 265 529.2 266.4C529 267 529 267.5 529 268C529.3 268.6 529.2 269.3 529.2 269.9C529.2 270.5 529.2 271.1 529.4 271.5C529.8 272.3 529.6 272.9 529.3 273.5C529.2 273.9 529 274.2 529 274.6V275.9C528.9 277.7 528.9 279.4 529 281.2C529 283.2 529 285.2 528.9 287.2C528.9 288.2 529 289.2 529.1 290.2C529.2 291.5 529.3 292.7 529.2 294C529.1 296.1 529.1 298.2 529.2 300.3C529.2 301.9 531 302.1 531 302.1H536C536.8 302.1 537.4 301.5 537.5 300.7C537.8 297.7 537.8 294.7 537.5 291.7C537.2 290.5 537.3 289.3 537.7 288.2C538 287.7 538 287.1 537.7 286.6C537.3 285.9 537.7 285.6 538.4 285.6C540.6 285.8 542.7 285.7 544.9 285.4C545.2 285.3 545.5 285.4 545.7 285.6C545.9 285.8 545.9 286.1 545.8 286.4C545.6 287.4 545.5 288.5 545.5 289.5C545.7 290.6 545.8 291.7 545.8 292.7C545.5 294.2 545.6 295.6 545.6 297.1C545.6 298.2 545.6 299.3 545.5 300.3C545.4 301.9 545.8 302.3 547.2 302.3C549 302.3 550.9 302.3 552.7 302.2C553.9 302.1 554.4 301.1 553.9 299.7C553.8 299.4 553.8 299 553.8 298.7C553.9 294.7 553.9 290.6 553.9 286.6C554.2 285.5 554.4 284.3 554.5 283.1C554.2 280.7 554.1 278.4 554.3 276C554.4 274.3 554.3 272.6 554.2 270.9ZM631.3 277.5H627.6C627.1 277.5 626 277.5 624.9 277.5C624.2 277.5 623.9 277.3 624 276.5C624.4 274 624.3 271.4 623.7 268.9C623.7 268.8 623.7 268.7 623.7 268.5C623.7 268.3 623.8 268.2 623.9 268.1C624 268 624.2 268 624.3 268C624.7 268 625.1 268.1 625.5 268.2C626.8 268.6 628.3 268.7 629.6 268.3C630.4 268.2 631.1 268.2 631.9 268.3C632.7 268.3 633.8 268.4 634.6 268.5C635.4 268.5 635.9 268.1 635.7 267.4C635.5 265.9 635.5 264.5 635.7 263C635.7 261.3 635.7 261.3 633.9 261.3C632.6 261.2 631.2 261.3 629.9 261.4C628 261.5 626.2 261.6 624.3 261.3C623.2 261.1 622 261.2 620.9 261.2C619.9 261.3 618.8 261.3 617.9 261.2C615.9 260.9 615.3 261.8 615.6 263.9C615.9 265.4 615.9 266.9 615.9 268.5C615.8 270 615.8 271.4 615.9 272.9C616.1 275.7 616.1 278.6 616.1 281.5C616.1 282.2 616.1 282.9 616.1 283.7C616.1 284.8 616 285.9 616 287C615.9 288 615.9 289.1 615.9 290.1C615.9 291.8 616.1 293.2 616.1 295.1C616.2 297 616.2 298.9 616.1 300.8C616 301.5 616.1 302.1 617 302.1C618.7 302.2 620.4 302.1 622 302C624 301.7 626 301.7 628 301.9C628.7 301.9 629.3 301.9 630 301.9C631.4 301.9 632.8 301.9 634.3 302.1C635.7 302.3 636.1 301.6 636.1 300C635.8 298.7 635.7 297.3 635.8 296C635.9 295 635.5 294.8 634.6 294.8C633.6 294.8 632.7 294.8 631.7 294.8C629.8 294.8 627.9 294.7 626 294.8C624.2 294.9 624 294.8 624.2 292.9C624.2 292.6 624.3 292.3 624.3 292.1C624.7 290.7 624.7 289.3 624.3 287.9C624.2 287.4 624.2 286.9 624.2 286.5C624.2 286 624.3 285.5 624.1 285C624.1 284.9 624.1 284.9 624.1 284.8C624.1 284.6 624.2 284.5 624.4 284.3C624.5 284.2 624.7 284.1 624.9 284.2C625.8 284.3 626.7 284.3 627.6 284.2C628.9 284.3 630.2 284.3 631.5 284.1H631.6C631.8 284.1 631.9 284 632 283.9C632.1 283.8 632.2 283.6 632.2 283.4C632.1 282.7 632.3 282 632.4 281.3C632.6 280.5 632.7 279.7 632.6 278.8C632.6 278.7 632.6 278.7 632.6 278.6C632.6 278.3 632.5 278 632.3 277.9C631.8 277.6 631.5 277.5 631.3 277.5ZM655.4 261.6H649.3C647.1 261.5 644.8 261.5 642.5 261.4C641.7 261.4 641.2 261.7 641.4 262.5C641.6 264 641.6 265.4 641.4 266.9C641.4 272 641.4 277.1 641.3 282.1C641.5 284.6 641.4 287.1 641.2 289.5C641.2 290.7 641.3 291.9 641.6 293C641.7 294.1 641.6 295.3 641.6 296.4C641.5 297.7 641.4 299.1 641.6 300.5C641.8 301.7 641.8 301.8 643.1 301.8C644.9 301.6 646.7 301.5 648.5 301.5C649.3 301.6 649.5 301 649.6 300.3C649.7 298.5 649.6 296.7 649.4 294.9V286.8C649.3 286.3 649.3 285.8 649.4 285.3C649.9 284.5 652.7 284.9 653.4 285.1H653.6C654.4 285.2 655 285.6 655.5 286.2C656 286.8 656.2 287.6 656.1 288.3C656.2 289.8 656.1 291.3 656 292.7C655.7 295 655.9 297.3 656.6 299.5C656.8 300.5 657.5 301.3 658.5 301.6C659.8 301.9 661.2 302 662.6 302.1C665.6 302.4 665.5 301.4 664.8 299.3C664.7 298.9 664.5 298.5 664.3 298.1C664 297.5 663.8 296.9 663.8 296.2C663.6 293.7 663.5 291.1 663.6 288.6C664.2 286 662.9 283.2 660.4 282.1C659.8 281.8 659.7 281.5 660.4 281.1C662.4 280.1 663.6 278 663.2 275.7C663.1 275 663.1 274.3 663.3 273.6C663.8 272 663.5 270.5 663.3 269C663.2 268.4 663.1 267.7 663 267.1C662.9 266.3 662.7 265.6 662.3 264.9C660.8 262.9 658.2 261.5 655.4 261.6ZM572.1 294C571.1 294.1 570.1 294.2 569.1 294.2C568.4 294.1 567.8 294.6 567.7 295.3V295.4C567.4 296.9 567.3 298.3 567.2 299.8C567.2 301.8 567 302 565 301.9C563.3 302.1 561.7 302.1 560 301.9C559.5 301.8 559.2 301.4 559.3 300.9C559.3 300 559.4 299.1 559.6 298.2C560.3 296.3 560.7 294.2 560.7 292.2C560.7 291.7 560.8 291.2 561 290.8C561.7 289.1 562.2 287.3 562.3 285.4C562.3 283.8 562.6 282.2 563.4 280.8C563.7 280.1 563.8 279.3 563.8 278.5C564.6 274.3 565.5 270.2 566.4 266C566.9 264.8 567.1 263.4 567 262.1C566.7 261.4 567.5 261.4 568 261.4H572.3C573.1 261.5 573.8 261.5 574.6 261.4C576.3 261.1 576.7 261.4 576.9 263.1C577.4 265 577.7 266.9 577.7 268.9C577.8 269.7 578 270.5 578.4 271.3C579 273.2 578.8 275.3 579.3 277.2C579.9 279.1 580.4 281.1 580.7 283.2C580.9 285.2 581.3 287.2 582 289.2C582.1 289.6 582.1 290.1 582 290.5C582 291.5 582.2 292.5 582.6 293.3C583.1 294.3 583.4 295.4 583.3 296.5C583.1 297.8 583.3 299.2 584 300.3C584.6 301.4 584.3 301.6 583.1 301.9C581.7 302.1 580.2 302 578.8 301.7C578.5 301.6 578.1 301.7 577.7 301.7C577.1 301.8 576.6 301.9 576.1 301.5C575.8 300.7 575.6 299.9 575.7 299.1C575.2 297.6 575 296.1 575.1 294.6C575.1 294.1 574.9 294 574.5 294H572.1ZM655.9 276C655.9 275.2 655.9 274.4 655.8 273.6C655.7 272.7 655.7 271.8 655.7 271C655.9 270.1 655.6 269.2 654.9 268.6C654.2 268 653.3 267.8 652.5 268.1C652 268.2 651.6 268.3 651.1 268.3C649.8 268.4 649.5 268.7 649.6 269.9C649.5 271.6 649.6 273.2 649.8 274.9C650 275.6 649.7 276.3 649.5 276.9C649.2 277.8 648.9 278.6 649.6 279.2C650.7 279.6 651.9 279.6 653.1 279.2C654.7 279.1 656 277.7 655.9 276ZM570.6 287.2C569.3 287.1 569.2 286.9 569.3 285.5C569.3 285.2 569.3 284.8 569.4 284.5C570.2 282.1 570.7 279.6 570.7 277.1V276.3C570.7 276.1 570.9 275.9 571.1 275.9C571.4 275.9 571.7 276 571.7 276.3C571.8 276.5 571.8 276.7 571.8 276.9C571.4 278.1 571.7 279.2 572 280.3C572.1 280.8 572.3 281.3 572.4 281.8C572.7 283.5 573.1 285.2 573.5 286.9C573.6 287.5 573.6 287.7 572.9 287.5C572.2 287.3 571.4 287.2 570.6 287.2ZM590.6 289.6C590.5 289.7 590.5 289.7 590.5 289.5L590.6 289.6ZM659.1 314.5C659.9 314.7 660.7 314.8 661.5 314.6L661.4 314.5H662.7C664.2 314.5 664.9 314.1 664.9 313.2C664.9 312.3 664.3 311.9 662.8 311.7C661.8 311.6 660.8 311.7 659.7 311.8C658.7 311.9 657.6 312 656.6 311.9C654.6 311.7 652.6 311.7 650.6 311.9C649.2 312 647.8 311.9 646.5 311.9C645 311.9 643.5 311.8 641.9 311.9C640.3 312 638.6 312 637 311.9C636.2 311.9 635.4 311.9 634.6 311.9C633.6 311.9 632.7 311.9 631.8 311.9C629.9 311.9 628.1 312 626.3 311.9C623.9 311.7 621.5 311.7 619.2 311.9C617.8 312.1 616.4 312.1 615.1 311.9C613.5 311.7 611.9 311.7 610.3 311.9C609 312.1 607.7 312.1 606.4 312C603.6 311.9 600.7 311.9 597.9 311.9C594.7 312.2 591.5 312.2 588.3 311.9C586.7 311.5 585 311.6 583.4 312.2C583.1 312.3 582.7 312.3 582.4 312.2C580.2 311.8 578 311.7 575.8 311.9C575.3 311.9 574.7 312 574.2 312C573.6 312.1 573 312.2 572.3 312.1C570.5 311.8 568.6 311.7 566.8 311.8C562.9 312.2 558.9 312.3 555 312.1L534.5 312C530.9 312 527.3 311.8 523.6 311.8C521.4 311.7 519.1 311.7 516.9 311.8C515.1 312 513.2 312 511.4 311.8C510.2 311.6 508.9 311.6 507.7 311.7C507.3 311.8 506.9 311.8 506.5 311.7C505.2 311.3 503.9 311.2 502.6 311.6C502.4 311.6 502.3 311.6 502.1 311.6C501.2 311.8 500.6 312.6 500.8 313.5C501 314.6 501.8 314.5 502.5 314.5C502.6 314.5 502.6 314.5 502.7 314.5C504.6 314.6 506.5 314.6 508.3 314.5C512.4 314.6 516.7 314.6 520.7 314.6C522.3 314.6 523.9 314.5 525.4 314.5C527.8 314.4 530.2 314.3 532.6 314.4C537.3 314.5 541.9 314.5 546.6 314.5C548.1 314.6 549.7 314.6 551.2 314.5C552.8 314.2 554.5 314.3 556.1 314.9C556.6 315.1 557.1 315.1 557.5 314.9C559.7 314.3 562 314.2 564.3 314.7C565.7 314.8 567.1 314.8 568.4 314.8C569.2 314.8 570 314.7 570.8 314.7C571.8 314.6 572.9 314.5 573.9 314.6C576.7 314.9 579.6 314.9 582.4 314.6C583 314.5 583.6 314.5 584.2 314.6C585.4 315 586.6 315.1 587.9 314.9C591.2 314.3 594.5 314.2 597.8 314.5C600.7 314.8 603.6 314.8 606.5 314.4C607.9 314.1 609.4 314.1 610.9 314.4C611.9 314.6 612.8 314.6 613.8 314.4C615.8 314.2 617.8 314.1 619.9 314.2C625.5 314.3 631.2 314.3 636.8 314.4C639.6 314.2 642.5 314.2 645.3 314.4C646.1 314.3 647 314.3 647.8 314.3C649 314.6 650.1 314.5 651.3 314.4C652.3 314.3 653.2 314.2 654.2 314.3C655.1 314.4 656.1 314.4 657.1 314.3C657.7 314.2 658.4 314.3 659.1 314.5ZM504 315.7H504.1C506.6 316.1 509.1 316.1 511.5 315.6C512.4 315.4 513.3 315.5 514.2 315.8C515.1 316 516 316 516.9 315.7C519 315.5 521.2 315.5 523.4 315.9C524.4 316.1 525.3 316.1 526.3 315.9C528.3 315.6 530.3 315.5 532.4 315.7C533.1 315.7 533.9 315.7 534.6 315.7C536.6 315.7 538.7 315.7 540.8 315.8C542.2 315.9 543.7 315.9 545.1 315.8C547.2 315.7 549.2 315.6 551.3 316.1C554.6 315.8 558 315.9 561.3 316C563 316.1 564.6 316.1 566.3 316.1C567.9 316.2 569.5 316.2 571 315.8C571.3 315.7 571.7 315.7 572 315.8C574 316 576.2 316 578.5 316C579.7 316 580.9 316 582.2 316C584.9 316 587.4 316 590 315.9C590.7 315.9 591.4 315.9 592 315.9C593.4 315.9 594.7 315.8 596.1 315.9C597.7 316 599.3 316 600.9 315.9C602.2 315.9 603.4 315.8 604.7 315.9C606.2 316 607.8 316 609.3 315.9C610.4 315.6 611.5 315.5 612.6 315.5C613.6 315.6 614.5 315.7 615.5 315.8C616.1 316.1 616.9 316.1 617.6 315.8C618 315.6 618.5 315.6 618.9 315.6C620.3 315.6 621.7 315.6 623.1 315.6C626.6 315.6 630.1 315.5 633.6 315.7C636.3 315.9 639.1 315.9 641.8 315.7C644 315.5 646.2 315.6 648.4 315.6C649.5 315.6 650.7 315.7 651.8 315.7C653.1 315.7 654.3 315.7 655.6 315.8C658.1 315.9 660.6 316 663.2 315.7C663.6 315.6 664 315.7 664.3 315.9C664.6 316.1 664.9 316.4 665 316.8C665 316.9 665 317.1 665 317.2C664.9 318.1 664.1 318.7 663.3 318.6C661.1 318.1 658.8 318 656.5 318.3C654.3 318 652.2 318.1 650.1 318.6C649.8 318.7 649.4 318.7 649.1 318.6C646.8 318 644.4 318 642.1 318.5C641.5 318.5 641 318.4 640.4 318.3C639.9 318.2 639.4 318.1 638.8 318.1L632.9 318.3C629.9 318.4 627 318.4 624 318.3C622.5 318.3 621 318.3 619.5 318.3C618.3 318.3 617.1 318.3 615.8 318.3C613.4 318.3 611 318.2 608.6 318.3C606 318.4 603.4 318.3 600.8 318.3C598.2 318.3 595.6 318.2 593 318.3C590 318.6 587 318.5 584.1 318.2C584 318.2 583.8 318.2 583.7 318.2C582.8 318.6 581.8 318.5 580.9 318.5C580.2 318.5 579.6 318.4 578.9 318.5C577.7 318.4 576.5 318.4 575.4 318.5C573.8 318.8 572.1 318.8 570.5 318.5C568.6 318.3 566.7 318.4 564.8 318.9C564.5 319 564.2 319 564 318.9C561.8 318.5 559.6 318.5 557.5 318.9C556.4 318.9 555.3 318.8 554.3 318.6C552.3 318.6 550.2 318.7 548.2 318.9C547.1 318.8 546 318.7 545 318.4C544.6 318.3 544.2 318.2 543.8 318.3C541.9 318.6 540 318.5 538.2 318.5C536.7 318.4 535.2 318.4 533.7 318.5C530.9 318.7 528 318.7 525.2 318.6C523.8 318.6 522.3 318.5 520.9 318.5L504.7 318.4H502.6C502 318.3 501.6 317.8 501.7 317.2C501.6 316.9 501.7 316.7 501.8 316.5C501.9 316.3 502.2 316.1 502.4 316.1H502.6L504 315.7Z" fill="#302E3F"/>
<path d="M275.655 162.116V162C275.627 159.158 276.171 156.34 277.256 153.714C278.34 151.087 279.943 148.706 281.967 146.712C283.992 144.718 286.398 143.152 289.04 142.107C291.683 141.063 294.509 140.562 297.35 140.633C310.037 140.633 318.891 150.288 318.891 161.875V161.99C318.92 164.829 318.378 167.645 317.296 170.271C316.215 172.896 314.616 175.276 312.596 177.271C310.575 179.265 308.174 180.833 305.535 181.88C302.896 182.928 300.073 183.433 297.234 183.367C284.538 183.367 275.655 173.741 275.655 162.116ZM311.244 162.116V162C311.244 153.977 305.393 147.305 297.196 147.305C288.999 147.305 283.263 153.851 283.263 161.884V162C283.263 170.023 289.057 176.637 297.312 176.637C305.567 176.637 311.283 170.149 311.283 162.116H311.244Z" fill="#302E3F"/>
<path d="M327.687 141.348H334.948V176.048H356.672V182.652H327.706L327.687 141.348Z" fill="#302E3F"/>
<path d="M364.637 141.348H371.898V182.652H364.637V141.348Z" fill="#302E3F"/>
<path d="M381.109 162.116V162C381.081 159.162 381.624 156.347 382.706 153.723C383.788 151.099 385.387 148.719 387.408 146.726C389.428 144.732 391.829 143.166 394.468 142.119C397.106 141.072 399.928 140.567 402.765 140.633C415.462 140.633 424.306 150.288 424.306 161.875V161.99C424.334 164.829 423.791 167.644 422.709 170.268C421.627 172.892 420.028 175.271 418.007 177.265C415.987 179.258 413.586 180.825 410.948 181.872C408.309 182.918 405.487 183.424 402.65 183.357C389.963 183.367 381.109 173.741 381.109 162.116ZM416.698 162.116V162C416.698 153.977 410.857 147.305 402.65 147.305C394.443 147.305 388.717 153.851 388.717 161.884V162C388.717 170.024 394.568 176.637 402.765 176.637C410.963 176.637 416.698 170.149 416.698 162.116Z" fill="#302E3F"/>
</svg>
